<?xml version="1.0" standalone="no"?>
<!DOCTYPE svg PUBLIC "-//W3C//DTD SVG 20010904//EN"
 "http://www.w3.org/TR/2001/REC-SVG-20010904/DTD/svg10.dtd">
<svg version="1.0" xmlns="http://www.w3.org/2000/svg"
 width="1188.000000pt" height="1188.000000pt" viewBox="0 0 1188.000000 1188.000000"
 preserveAspectRatio="xMidYMid meet">
<metadata>
Created by potrace 1.14, written by Peter Selinger 2001-2017
</metadata>
<g transform="translate(0.000000,1188.000000) scale(0.100000,-0.100000)"
fill="#000000" stroke="none">
<path d="M6676 10403 c-3 -4 -103 -12 -193 -17 -13 0 -23 -4 -23 -7 0 -3 -12
-5 -27 -5 -16 1 -34 -3 -40 -8 -7 -4 -13 -5 -13 -2 0 4 -10 2 -21 -5 -16 -8
-20 -8 -14 1 6 9 3 9 -12 1 -11 -5 -31 -12 -44 -15 -56 -11 -180 -46 -198 -56
-11 -6 -24 -9 -28 -8 -4 1 -23 -6 -40 -15 -18 -10 -35 -17 -38 -17 -3 0 -30
-11 -60 -24 -49 -22 -109 -27 -135 -11 -3 2 -28 7 -55 11 -27 3 -59 8 -70 9
-11 2 -40 6 -65 9 -71 10 -74 11 -89 20 -9 6 -12 5 -7 -2 4 -7 -3 -9 -21 -7
-16 2 -28 4 -28 5 0 2 -41 5 -155 13 -25 2 -51 6 -58 11 -6 4 -12 3 -12 -3 0
-7 -8 -7 -26 -1 -18 7 -23 7 -18 -1 5 -8 1 -8 -14 0 -12 6 -23 7 -26 3 -4 -7
-51 -8 -51 -2 0 2 -26 3 -57 4 -35 2 -58 -2 -58 -8 0 -7 -3 -7 -8 0 -8 13
-159 14 -179 1 -6 -4 -14 -3 -18 2 -5 9 -42 7 -52 -3 -3 -3 -16 -1 -29 4 -13
5 -24 6 -24 2 0 -4 -34 -7 -76 -7 -42 0 -78 -4 -81 -8 -3 -4 -12 -2 -21 5 -12
10 -14 10 -8 0 5 -9 -2 -12 -26 -11 -34 0 -124 -8 -168 -15 -14 -2 -47 -7 -75
-11 -56 -7 -88 -12 -125 -20 -14 -3 -45 -7 -70 -10 -51 -5 -75 -9 -145 -27
-27 -7 -53 -11 -57 -10 -5 1 -8 -2 -8 -6 0 -4 -8 -8 -17 -9 -10 0 -27 -3 -38
-6 -11 -3 -42 -10 -70 -17 -27 -6 -57 -14 -65 -17 -22 -9 -42 -13 -72 -16 -14
-1 -24 -6 -20 -11 3 -5 -2 -7 -11 -3 -10 3 -17 2 -17 -3 0 -6 -8 -10 -17 -10
-10 -1 -63 -17 -118 -36 -55 -19 -104 -36 -110 -38 -5 -2 -23 -8 -40 -15 -44
-17 -60 -23 -60 -20 0 1 -18 -7 -40 -18 -22 -12 -44 -22 -50 -23 -5 -1 -23 -8
-40 -15 -16 -7 -65 -29 -108 -49 -43 -19 -81 -36 -85 -37 -4 0 -19 -10 -34
-21 -16 -11 -28 -16 -28 -13 0 3 -13 -3 -29 -14 -16 -12 -33 -21 -39 -21 -5 0
-26 -11 -46 -25 -20 -13 -36 -22 -36 -18 0 3 -8 -1 -17 -9 -10 -8 -43 -28 -73
-44 -30 -16 -59 -35 -63 -41 -4 -7 -15 -13 -22 -13 -8 0 -15 -5 -15 -11 0 -5
-5 -7 -10 -4 -6 3 -13 -1 -16 -9 -3 -9 -10 -16 -15 -16 -10 0 -86 -48 -106
-67 -7 -6 -28 -21 -48 -33 -19 -12 -35 -26 -35 -31 0 -4 -7 -6 -15 -3 -8 4
-15 2 -15 -4 0 -6 -24 -28 -52 -49 -52 -37 -69 -51 -110 -85 -12 -10 -25 -18
-30 -18 -5 0 -6 -4 -3 -10 3 -5 0 -10 -9 -10 -8 0 -16 -3 -18 -7 -1 -5 -23
-18 -48 -31 -65 -32 -154 -84 -160 -92 -3 -4 -15 -10 -27 -14 -13 -4 -23 -12
-23 -17 0 -5 -7 -9 -15 -9 -9 0 -18 -7 -21 -15 -4 -8 -9 -13 -14 -10 -4 2 -16
-5 -28 -15 -12 -11 -25 -20 -29 -20 -4 0 -21 -11 -38 -25 -37 -30 -36 -30
-110 -85 -33 -24 -65 -49 -71 -55 -6 -5 -40 -35 -75 -65 -63 -55 -209 -199
-261 -258 -49 -56 -178 -229 -178 -239 0 -6 -9 -18 -20 -28 -11 -10 -20 -24
-20 -30 0 -7 -7 -18 -15 -25 -9 -7 -13 -15 -11 -18 3 -2 -4 -16 -14 -30 -11
-13 -20 -31 -20 -38 0 -8 -4 -14 -9 -14 -8 0 -23 -37 -25 -63 -1 -4 -6 -11
-11 -15 -6 -4 -12 -16 -14 -27 -1 -11 -8 -29 -14 -40 -6 -11 -12 -22 -12 -25
-6 -30 -19 -77 -23 -85 -4 -5 -7 -14 -8 -20 -1 -5 -4 -23 -7 -40 -10 -50 -17
-87 -31 -165 -8 -44 -15 -63 -16 -45 -1 30 -1 30 -11 6 -13 -33 -22 -127 -23
-238 -1 -51 -5 -93 -9 -93 -4 0 -3 -9 3 -20 6 -11 7 -20 2 -20 -5 0 -9 -7 -9
-15 0 -8 3 -15 6 -15 3 0 7 -30 9 -67 1 -37 8 -73 15 -82 10 -12 9 -13 -2 -6
-10 6 -12 4 -6 -5 5 -7 11 -30 15 -49 4 -20 10 -47 14 -61 5 -18 1 -31 -11
-45 -10 -11 -29 -36 -43 -55 -13 -19 -27 -37 -30 -40 -4 -3 -20 -27 -35 -55
-16 -27 -33 -51 -37 -53 -4 -2 -8 -9 -8 -16 0 -6 -12 -29 -26 -50 -15 -21 -20
-35 -13 -30 7 4 4 -5 -9 -20 -12 -16 -22 -37 -22 -47 0 -9 -6 -24 -13 -31 -7
-7 -14 -15 -14 -18 0 -6 -22 -79 -30 -100 -3 -8 -8 -24 -10 -35 -6 -26 -8 -33
-21 -80 -6 -22 -14 -56 -16 -75 -18 -119 -23 -147 -31 -159 -5 -10 -4 -12 4
-7 8 6 10 1 6 -17 -11 -42 -13 -197 -2 -197 5 0 4 -7 -3 -15 -6 -8 -9 -18 -7
-22 3 -5 8 -40 12 -78 4 -39 9 -83 12 -100 2 -16 5 -39 7 -51 1 -11 6 -25 10
-32 4 -7 5 -12 2 -12 -2 0 0 -15 6 -32 5 -18 11 -42 13 -53 6 -39 66 -210 82
-234 8 -13 11 -21 6 -18 -6 4 8 -31 31 -76 23 -45 44 -83 49 -85 4 -2 7 -10 7
-18 0 -8 5 -14 12 -14 6 0 9 -3 6 -6 -5 -5 21 -52 49 -89 5 -5 22 -30 38 -54
41 -61 76 -101 177 -204 48 -49 85 -94 81 -100 -3 -5 2 -16 12 -24 11 -7 15
-13 11 -13 -13 0 67 -75 102 -95 17 -11 32 -23 32 -27 0 -4 6 -8 14 -8 8 0 16
-3 18 -8 2 -4 30 -25 63 -46 33 -22 78 -51 100 -66 22 -14 47 -29 55 -33 8 -4
44 -25 79 -47 34 -22 69 -40 77 -40 8 0 14 -4 14 -10 0 -5 7 -10 15 -10 8 0
15 -4 15 -10 0 -5 9 -10 19 -10 11 0 21 -4 23 -8 2 -4 32 -20 68 -36 36 -16
83 -37 105 -47 23 -9 54 -21 70 -25 17 -4 35 -10 40 -14 6 -5 26 -11 46 -14
20 -3 42 -8 50 -10 34 -12 150 -28 224 -30 22 0 43 -5 47 -11 5 -6 8 -6 8 1 0
6 7 11 15 11 8 0 15 -5 15 -11 0 -6 4 -5 9 2 11 17 21 17 32 0 5 -7 9 -8 9 -2
0 6 11 10 25 10 27 -2 35 -8 39 -28 12 -67 31 -128 39 -128 6 0 7 -3 4 -7 -4
-3 0 -17 8 -30 9 -13 13 -23 10 -23 -8 0 67 -134 77 -138 4 -2 8 -10 8 -18 0
-8 5 -14 10 -14 6 0 10 -6 10 -13 0 -7 9 -23 20 -35 11 -12 20 -24 20 -26 0
-6 19 -30 55 -70 11 -12 31 -37 45 -55 14 -18 60 -69 102 -113 43 -45 78 -85
78 -90 0 -4 6 -8 14 -8 8 0 18 -9 21 -21 4 -11 9 -18 12 -15 3 2 23 -13 46
-34 22 -22 43 -37 47 -35 3 2 13 -5 20 -16 8 -10 20 -19 27 -19 7 0 13 -4 13
-10 0 -5 7 -10 15 -10 8 0 15 -4 15 -8 0 -5 16 -14 35 -22 19 -8 35 -17 35
-22 0 -4 9 -8 20 -8 11 0 20 -4 20 -9 0 -5 10 -13 22 -17 13 -4 52 -20 88 -37
36 -17 71 -30 78 -30 6 0 12 -4 12 -9 0 -4 3 -7 8 -6 4 1 24 -3 45 -10 45 -13
78 -8 89 13 8 13 12 13 38 0 17 -9 30 -13 30 -9 0 4 7 1 15 -6 8 -7 15 -10 15
-6 0 3 12 1 28 -5 15 -6 35 -13 44 -15 10 -2 27 -6 38 -9 56 -14 67 -17 95
-22 17 -4 40 -7 53 -7 12 -1 22 -4 22 -8 0 -3 11 -5 25 -3 14 1 28 -1 31 -6 2
-4 11 -6 19 -2 8 3 15 1 15 -3 0 -5 21 -10 48 -10 82 -2 157 -10 168 -17 6 -3
13 -4 16 -1 3 2 79 7 169 9 144 4 224 9 224 15 0 0 16 3 35 5 56 7 93 12 130
19 19 4 42 8 50 10 8 2 26 6 40 9 25 6 67 13 150 23 63 8 85 11 85 13 0 2 23
4 50 7 60 4 77 7 90 16 6 4 17 3 24 -1 7 -5 29 -5 49 -1 20 3 60 6 87 5 28 -1
53 4 57 9 5 7 8 7 8 1 0 -6 54 -10 143 -10 83 0 145 -4 149 -10 5 -6 8 -5 8 3
0 7 5 10 11 6 6 -3 36 -8 66 -10 127 -7 293 -55 293 -85 0 -10 4 -15 94 -112
30 -31 52 -57 50 -57 -5 0 37 -40 150 -144 49 -44 92 -80 97 -78 5 1 9 -2 9
-7 0 -18 351 -265 383 -269 4 -1 15 -8 23 -17 9 -8 21 -15 29 -15 7 0 15 -4
17 -8 4 -10 172 -92 188 -92 6 0 8 -5 5 -10 -3 -6 1 -10 10 -10 8 0 37 -9 63
-21 26 -12 56 -25 67 -30 28 -12 79 -31 83 -30 1 1 15 -5 31 -13 16 -9 31 -12
35 -9 3 4 6 1 6 -6 0 -7 4 -10 9 -6 5 3 13 0 16 -6 4 -5 13 -8 20 -5 8 3 15 1
17 -4 2 -5 12 -11 23 -13 11 -1 25 -5 30 -8 6 -3 33 -12 60 -19 28 -7 54 -17
60 -21 5 -5 21 -9 36 -9 15 0 31 -5 34 -10 3 -6 21 -10 39 -10 18 0 36 -3 40
-7 10 -10 96 -32 127 -33 14 0 29 -3 33 -7 8 -8 28 -13 81 -17 22 -2 47 -7 55
-10 8 -3 29 -7 45 -10 17 -2 30 -5 30 -6 0 -2 16 -4 35 -6 19 -2 49 -5 65 -8
121 -21 477 -28 610 -12 99 11 120 14 123 16 1 1 10 3 20 5 9 1 25 5 35 9 9 5
24 6 32 2 8 -3 15 -1 15 4 0 6 7 10 15 10 27 0 205 62 205 71 0 5 9 9 20 9 11
0 20 5 20 12 0 6 3 8 7 5 3 -4 15 1 26 10 10 10 21 16 24 14 5 -4 14 1 96 62
29 20 61 44 72 52 20 14 71 56 108 87 11 10 24 18 29 18 5 0 6 5 3 10 -3 5 -1
10 5 10 6 0 33 22 61 49 27 26 49 47 49 46 0 -9 171 175 222 237 18 23 42 50
52 60 11 10 16 18 11 18 -4 0 1 8 11 18 22 19 118 164 155 232 13 25 27 47 32
48 4 2 7 8 7 13 0 5 15 42 34 82 41 90 50 110 48 120 -1 4 3 7 10 7 6 0 9 3 6
6 -4 3 0 20 7 38 8 18 17 45 20 60 3 14 8 38 11 54 7 36 16 44 56 47 87 8 226
42 303 75 24 10 46 16 49 13 3 -4 6 -1 6 6 0 7 5 9 10 6 6 -3 10 -2 10 2 0 5
23 17 51 28 28 11 58 28 66 37 9 10 20 18 24 18 5 0 20 9 33 21 13 12 28 22
32 23 4 0 25 19 46 41 21 21 38 35 38 31 0 -5 10 4 22 20 13 16 26 30 30 32 3
2 26 29 50 60 24 31 46 61 51 67 4 5 16 21 27 34 11 13 20 30 20 38 0 7 5 13
10 13 6 0 10 6 10 14 0 8 6 21 14 28 7 8 17 25 21 38 4 14 12 28 17 31 5 3 11
12 12 20 1 8 14 39 28 71 24 51 39 90 44 111 1 4 3 9 4 12 3 7 7 22 9 36 0 5
5 8 9 5 5 -3 8 5 7 17 -1 11 7 48 17 81 10 33 19 70 20 83 1 13 5 23 9 23 3 0
5 10 4 22 -1 13 0 28 4 33 3 6 7 21 7 35 1 14 3 26 4 28 1 1 3 10 4 20 1 9 4
22 7 27 3 6 5 22 4 38 -1 15 1 27 4 27 3 0 6 12 7 28 0 15 4 65 9 112 10 104
11 542 1 665 -4 50 -8 108 -10 130 -1 22 -4 45 -7 50 -3 6 -5 17 -4 25 0 8 -4
18 -10 22 -6 5 -6 8 2 8 9 0 10 7 3 24 -4 13 -7 35 -6 50 2 14 0 26 -4 26 -4
0 -7 12 -8 28 -1 15 -4 38 -7 52 -3 14 -8 41 -11 60 -3 19 -8 38 -10 41 -3 6
-8 31 -18 96 -1 7 -5 16 -9 19 -4 4 -7 19 -7 34 0 15 -3 30 -7 34 -4 3 -8 16
-10 27 -4 27 -42 149 -54 174 -6 11 -11 30 -12 43 0 12 -5 22 -9 22 -4 0 -13
19 -20 43 -7 23 -18 53 -25 66 -6 14 -10 28 -7 33 3 4 1 8 -5 8 -5 0 -15 16
-21 35 -6 19 -16 35 -21 35 -5 0 -8 3 -7 8 5 13 -24 72 -35 72 -6 0 -8 3 -4 6
6 7 -12 43 -58 114 -15 25 -27 45 -24 45 2 0 -6 11 -18 25 -13 13 -23 29 -23
34 -1 74 -10 208 -16 231 -3 17 -6 38 -6 48 0 9 -4 17 -9 17 -6 0 -8 4 -5 8 4
7 -12 74 -30 122 -3 8 -4 15 -3 15 1 0 -8 19 -19 41 -12 23 -18 44 -15 48 4 3
1 6 -6 6 -7 0 -9 5 -6 10 3 6 1 10 -4 10 -6 0 -10 3 -9 8 1 6 -1 14 -19 60 -3
9 -8 27 -9 39 -2 12 -8 31 -14 42 -6 12 -9 21 -6 21 5 0 -18 87 -31 120 -3 8
-8 24 -10 35 -1 11 -7 29 -12 40 -5 11 -15 38 -21 60 -7 22 -20 59 -31 83 -11
24 -17 47 -14 51 2 5 -2 14 -10 21 -8 7 -15 20 -15 29 0 9 -14 43 -30 76 -17
33 -30 65 -30 72 0 7 -4 13 -8 13 -6 0 -33 58 -32 68 1 1 -6 10 -15 18 -8 9
-13 20 -10 25 4 5 1 9 -4 9 -6 0 -11 7 -11 15 0 8 -5 15 -11 15 -5 0 -7 5 -4
10 3 6 2 10 -2 10 -5 0 -17 18 -27 40 -10 22 -21 40 -26 40 -4 0 -10 8 -14 18
-8 24 -29 56 -43 65 -7 4 -13 13 -13 18 0 6 -6 16 -13 23 -28 29 -79 94 -76
97 2 2 -6 18 -18 35 -12 17 -20 34 -16 38 3 3 1 6 -5 6 -7 0 -12 6 -12 13 0
27 -229 267 -256 267 -3 0 -12 6 -19 13 -32 28 -43 35 -63 41 -12 4 -22 12
-22 17 0 6 -4 8 -9 4 -5 -3 -17 2 -25 11 -9 8 -16 12 -16 9 0 -4 -11 0 -25 9
-14 9 -25 14 -25 10 0 -4 -7 -1 -15 6 -8 6 -19 9 -25 5 -5 -3 -10 -2 -10 3 0
10 -129 44 -141 36 -4 -2 -9 1 -11 6 -2 6 -13 12 -25 13 -12 0 -20 4 -17 8 2
4 0 10 -6 14 -5 3 -10 13 -10 21 0 9 -7 22 -15 31 -8 8 -13 19 -10 24 4 5 1 9
-4 9 -6 0 -11 6 -11 14 0 8 -4 16 -9 18 -5 2 -11 9 -13 17 -2 8 -11 24 -20 35
-10 12 -16 23 -15 26 1 3 -9 18 -23 32 -32 32 -60 67 -60 73 0 2 -17 21 -37
42 -21 21 -37 41 -35 45 1 4 -2 8 -6 8 -5 0 -29 19 -54 43 -65 60 -120 102
-130 99 -4 -1 -8 2 -8 6 0 10 -80 63 -122 83 -16 7 -28 16 -28 21 0 4 -9 8
-20 8 -11 0 -20 5 -20 10 0 6 -6 10 -14 10 -8 0 -16 3 -18 8 -4 9 -120 66
-130 64 -5 -1 -8 2 -8 8 0 5 -5 10 -11 10 -18 0 -123 51 -156 76 -18 14 -33
22 -33 19 0 -3 -10 3 -22 15 -12 11 -27 20 -34 20 -7 0 -19 6 -26 13 -7 7 -22
16 -33 19 -11 4 -51 20 -90 36 -67 27 -180 56 -214 55 -9 -1 -23 1 -31 4 -8 3
-20 7 -25 8 -14 3 -104 43 -127 55 -10 6 -25 10 -33 10 -8 0 -15 4 -15 10 0 5
-3 9 -7 8 -14 -4 -103 26 -103 35 0 4 -4 6 -8 3 -5 -3 -20 1 -35 9 -14 7 -28
11 -30 8 -3 -2 -18 4 -33 14 -16 10 -29 17 -31 16 -2 -2 -4 -3 -5 -2 -2 0 -11
2 -20 4 -10 2 -48 12 -85 24 -37 11 -108 30 -158 42 -84 20 -101 23 -165 34
-14 3 -38 7 -54 11 -16 3 -45 8 -65 9 -20 2 -36 4 -36 5 0 3 -51 8 -97 11 -21
1 -38 7 -38 13 0 6 -4 5 -9 -3 -5 -8 -14 -10 -22 -5 -13 8 -386 14 -393 7z"/>
</g>
</svg>
